<svg height="12" viewBox="0 0 15 12" width="15" xmlns="http://www.w3.org/2000/svg"><path d="m3.89942112 10.6790004h12.99999998c.4970563 0 .9-.4029437.9-.89999998 0-.49705627-.4029437-.9-.9-.9h-12.99999998c-.49705627 0-.9.40294373-.9.9 0 .49705628.40294373.89999998.9.89999998zm11.72711458-.88459581-4.371073 4.47685301c-.3472451.3556484-.3404328.9254562.0152156 1.2727012.3556484.3472451.9254562.3404329 1.2727012-.0152155l5-5.121c.347317-.3557221.3404196-.92567257-.0154041-1.27288537l-5-4.879c-.3557501-.34714093-.9255559-.34016183-1.2726968.01558825-.3471409.35575007-.3401618.92555581.0155883 1.27269674z" fill="#003d86" transform="translate(-3 -4)"/></svg>