<svg height="20" viewBox="0 0 20 20" width="20" xmlns="http://www.w3.org/2000/svg" xmlns:xlink="http://www.w3.org/1999/xlink"><defs><path id="a" d="m16.0223125 8.41909501c-.2944404.00132797-.5878522.03486074-.875.1l-1.39375-3.225h1.16875c.201229-.00579222.3873485-.10815792.5-.275.1066582-.16958539.118467-.38214377.03125-.5625l-.575-1.15625c-.1502007-.26797264-.4814882-.37498983-.7600733-.24552969s-.4104016.45168447-.3024267.73927969l.1625.35h-2.8875c-.3244672 0-.5875.26303271-.5875.5875s.2630328.5875.5875.5875h1.35625l.625 1.40625h-6.78749995c-.23166262-.00277701-.442852.13228597-.5375.34375l-.675 1.5125c-.35295141-.10550125-.7191252-.16021687-1.0875-.1625-1.98949786.00771296-3.67092421 1.47640414-3.94605857 3.44680059-.27513436 1.9703965.93966393 3.8434992 2.85095162 4.3958944 1.9112877.5523953 3.93803468-.3838445 4.75647493-2.1972162.81844025-1.8133716.1797685-3.9526114-1.49886798-5.02047879l.51875-1.1625h5.55624995l-1.9875 3.19999999-1.58124995-2.41874999c-.18903156-.25387217-.53800842-.32635198-.8125-.16875-.13131984.08436637-.22319045.218003-.25493079.37082687s-.00068297.3119917.08618079.44167313l1.875 2.87499999-.9 1.44375c-.0831547.1314841-.11013023.2908151-.07489099.4423438.03523924.1515288.12975177.2826068.26239099.3639062.09137229.058394.19782007.0888077.30625.0875.20360326.0033351.39378528-.101265.5-.275l3.94999995-6.34999999.4625 1.04375c-1.7260611.98340359-2.4552052 3.09431629-1.7040722 4.93338369s2.7495945 2.83594 4.6705756 2.3297768c1.9209811-.5061633 3.1687286-2.3583863 2.9160926-4.3288037-.252636-1.97041737-1.9273055-3.44794426-3.913846-3.45310679zm-9.22499995 3.97499999c.02135031 1.2170225-.73257378 2.3132758-1.87666595 2.7287909s-2.42579457.0585673-3.19041039-.8885137c-.76461581-.9470809-.84335644-2.2752273-.19600098-3.3060185.64735547-1.03079126 1.87790361-1.53668068 3.06307732-1.25925869l-1.15625 2.56874999c-.10922462.3002343.02556325.6345082.3125.775.07417461.0349884.15551467.0521126.2375.05.22856327-.0076172.43471632-.1394593.5375-.34375l1.14375-2.56875c.70877865.5278807 1.12599433 1.3599942 1.125 2.24375zm9.22499995 2.80625c-1.254215.0065349-2.3597733-.821779-2.7058736-2.0273133-.3461003-1.2055342.1516994-2.4941608 1.2183736-3.1539367l1.1875 2.675c.0911152.2116068.3008884.3473424.53125.34375.0819854.0021126.1633254-.0150116.2375-.05.1437302-.0616208.256567-.1785581.3130202-.3243954.0564531-.1458373.0517597-.3082703-.0130202-.4506046l-1.1625-2.58749999c.1258005-.02416215.2532464-.03878709.38125-.04375 1.5533009 0 2.8125 1.25919919 2.8125 2.81249999s-1.2591991 2.8125-2.8125 2.8125zm-10.92499995-8.76874999h2.7125c.20989354 0 .40384317-.11197686.50878994-.29375.10494678-.18177313.10494678-.40572687 0-.58750001-.10494677-.18177314-.2988964-.29374999-.50878994-.29374999h-2.7125c-.32446729 0-.5875.26303271-.5875.5875s.26303271.5875.5875.5875z"/><mask id="b" fill="#fff"><use fill="#fff" fill-rule="evenodd" xlink:href="#a"/></mask></defs><g fill="none" fill-rule="evenodd"><use fill="#000" fill-rule="nonzero" xlink:href="#a"/><g fill="#003d86" mask="url(#b)"><path d="m0 0h20v20h-20z"/></g></g></svg>