<svg height="11" viewBox="0 0 20 11" width="20" xmlns="http://www.w3.org/2000/svg"><path d="m14.24875 7.553125c-1.493125-1.418125-2.8425-2.553125-4.109375-2.553125h-3.426875c-3.82625 0-6.7125 3.391875-6.7125 7.89 0 .03375.015625.0625.019375.095-.004375.06375-.019375.125-.019375.19 0 1.505625 1.225625 2.730625 2.7325 2.730625 1.155625 0 2.14-.724375 2.538125-1.740625h6.751875c.398125 1.01625 1.383125 1.740625 2.53875 1.740625 1.15625 0 2.141875-.724375 2.54-1.740625h1.39c.48625 0 .880625-.394375.880625-.880625 0-4.04-2.581875-5.598125-5.123125-5.73125zm-11.516875 6.591875c-.535 0-.970625-.435-.970625-.97 0-.535625.435625-.971875.970625-.971875.534375 0 .96875.43625.96875.971875 0 .534375-.434375.97-.96875.97zm11.829375 0c-.535 0-.97-.435-.97-.97 0-.535625.435-.971875.97-.971875s.970625.43625.970625.971875c0 .534375-.435625.97-.970625.97zm2.608125-1.74125c-.335-1.13-1.37125-1.96125-2.608125-1.96125-1.23625 0-2.271875.831875-2.606875 1.96125h-6.61625c-.335-1.13-1.37-1.96125-2.60625-1.96125-.210625 0-.41375.029375-.610625.074375.72-2.246875 2.45625-3.75625 4.59125-3.75625h3.426875c.7375 0 2.35875 1.553125 3.13875 2.299375.163125.156875.38125.244375.60875.244375 1.263125 0 3.30375.426875 3.666875 3.099375zm-7.213125-4.328125h-3.828125c-.48625 0-.880625.394375-.880625.880625s.394375.880625.880625.880625h3.828125c.48625 0 .880625-.394375.880625-.880625s-.394375-.880625-.880625-.880625z" transform="translate(0 -5)"/></svg>