<svg height="20" viewBox="0 0 20 20" width="20" xmlns="http://www.w3.org/2000/svg" xmlns:xlink="http://www.w3.org/1999/xlink"><defs><path id="a" d="m9.87062357 2.34598632c-4.1559982 0-7.52644929 3.36982913-7.52644929 7.52644929 0 4.15537619 3.37045109 7.52582729 7.52582732 7.52582729 4.1553762 0 7.5258273-3.3704511 7.5258273-7.52644926 0-4.15599819-3.3704511-7.52582732-7.52520533-7.52582732zm-1.50143365 2.62471003c.30414294-.40241407.74636304-.66115326 1.24518234-.72956987.49695334-.06966055.99515074.06157495 1.39632084.36571789.7954986.60704194.9715159 1.73591603.4179633 2.56126916l.0031099.00186591-.0634409.0827219c-.3713156.48575795-.9335758.74138729-1.50143365.74138729-.39806028 0-.79736451-.12501581-1.13758166-.38437697-.39930423-.30165506-.65679948-.74200925-.72583806-1.23958461-.06903858-.50068521.06095298-.99701663.36571789-1.3994307zm-3.0271241 6.31858515c-.78243725-.5902488-.9348197-1.70917141-.34083912-2.49223063.59460256-.78679104 1.70979333-.93792956 2.4959624-.34394897.78243726.59709043.93233183 1.7091714.33710731 2.4990722-.59460256.7787055-1.70979333.9348198-2.49223059.3371074zm6.08970048 3.4071472-.0634409.0827219c-.3706936.4863799-.9335758.7407653-1.50081168.7407653-.39806029 0-.79798648-.1250158-1.13820363-.3849989-.39930423-.3010331-.65679948-.7407653-.72583806-1.2383407-.06966055-.5000632.06033101-.9976386.36509592-1.3994307.30414294-.402414.74636304-.6611532 1.24518234-.7295698.49695341-.0684166.99515071.0609529 1.39632081.3657179.7954986.6070419.9715159 1.735916.4179633 2.5612691zm3.3051443-3.7442546c-.5946026.7787055-1.7097933.9348198-2.4922306.3371074-.7824372-.5902488-.9348197-1.70917141-.3408391-2.49223063.5939806-.78679104 1.7097933-.93792956 2.4959624-.34394897.7824372.5977124.9317098 1.7097933.3371073 2.4990722zm4.9788634-1.76763642c-.1847248-2.63155169-1.3813936-5.03297477-3.371073-6.76267111-1.9896795-1.72969635-4.5341555-2.58179415-7.16384127-2.3970693-5.42792521.37940121-9.53540981 5.10636713-9.15663057 10.53678023.18410289 2.6303077 1.38077163 5.0317308 3.36982913 6.7614272 1.81179628 1.574826 4.08260583 2.421948 6.45977211 2.421948.2338604 0 .4683428-.0080856.7034472-.0248787 5.4291691-.3806452 9.5372757-5.1063672 9.1584964-10.53553632zm-9.2157176 9.70085362.0292326.4173413-.0292326-.4173413c-2.40826474.1685536-4.73567349-.6107738-6.55555537-2.1943073-1.82112582-1.5829117-2.91641358-3.7809508-3.08434526-6.1873496-.34830275-4.97139986 3.41087909-9.29781762 8.37854709-9.64487643 2.40826474-.16793169 4.73629544.61139572 6.55617734 2.19430733 1.8211258 1.58353359 2.9164136 3.78157274 3.0849672 6.18921551.3483028 4.97015589-3.411501 9.29532969-8.379791 9.64301049zm-2.01020446-6.1985451c-.2382142.3451929-.3371073.7619123-.2786422 1.1804976.03607422.2587392.13434535.4950875.27615433.7046911l1.22092554-.9435273zm2.63901536-.1573582c-.0721485-.0833438-.1536264-.160468-.2444339-.2301286-.3576323-.2699346-.7992305-.3868648-1.24207253-.3259118-.39992619.0547333-.75880242.2481657-1.0237613.5479548l1.2601096.9740038zm-2.51835333-5.31534875c.07339237.08334387.1554923.15984609.2462998.2282627.70531308.53862533 1.70543953.42667087 2.28076103-.23697027l-1.25762169-.97213786zm0 7.52707125c.07339237.0833439.1554923.1598461.24567783.2282627.70531308.5380034 1.7060615.4266709 2.281383-.2363483l-1.25762169-.9721378zm2.65269863-7.70184459c.3812671-.57718742.3576323-1.31546486-.0111954-1.86652957l-1.2016445.92922198zm-2.77522656.00559772 1.22092554-.94352728-1.21843767-.9410394c-.2382142.34519291-.3371073.76191227-.2786422 1.18049755.03483028.25811721.13372338.49508748.27615433.70406913zm2.64088126-2.04130291c-.0721485-.08334388-.1536264-.16046806-.2444339-.23012861-.3570104-.26993463-.7948767-.38624287-1.24207253-.32528989-.39992619.05473329-.75880242.24816571-1.0237613.54795487l1.2601096.97400376zm.1237718 7.69562488-1.2016445.929222 1.2134619.9373076c.3794013-.5771874.3563884-1.3160868-.0118174-1.8665296z"/><mask id="b" fill="#fff"><use fill="#fff" fill-rule="evenodd" xlink:href="#a"/></mask></defs><g fill="none" fill-rule="evenodd"><use fill="#000" fill-rule="nonzero" xlink:href="#a"/><g fill="#003d86" mask="url(#b)"><path d="m0 0h20v20h-20z"/></g></g></svg>