<svg height="20" viewBox="0 0 20 20" width="20" xmlns="http://www.w3.org/2000/svg" xmlns:xlink="http://www.w3.org/1999/xlink"><defs><path id="a" d="m18.29875 11.84c-.595 0-1.07625.48125-1.07625 1.07625v2.78375l-3.544375-3.544375c-.420625-.420625-1.101875-.420625-1.521875 0s-.420625 1.101875 0 1.521875l3.544375 3.544375h-2.78375c-.595 0-1.07625.48125-1.07625 1.07625s.48125 1.07625 1.07625 1.07625h5.381875c.14 0 .279375-.02875.41125-.083125.26375-.10875.473125-.31875.5825-.5825.054375-.13125.083125-.27125.083125-.41125v-5.381875c-.000625-.59375-.481875-1.075625-1.076875-1.075625zm-11.079375.315625c-.420625-.420625-1.101875-.420625-1.521875 0l-3.545 3.544375v-2.78375c0-.595-.48125-1.07625-1.07625-1.07625s-1.07625.481875-1.07625 1.076875v5.381875c0 .14.02875.279375.083125.41125.10875.26375.31875.473125.5825.5825.13125.054375.27125.083125.41125.083125h5.381875c.595 0 1.07625-.48125 1.07625-1.07625s-.48125-1.07625-1.07625-1.07625h-2.78375l3.544375-3.544375c.420625-.42125.420625-1.1025 0-1.523125zm-3.540625-9.994375h2.779375c.595 0 1.07625017-.48125 1.07625017-1.07625s-.48125017-1.07631111-1.07625017-1.07631111h-5.381875c-.0075-.00056389-.01375.00381111-.021875.00381111-.1325.003125-.265.0275-.39.07875-.121875.050625-.23.12625-.324375.215625-.0075.0075-.018125.009375-.025625.016875-.014375.014375-.019375.03375-.0325.049375-.080625.09-.151875.1875-.19875.300625-.05375.13-.08125.2675-.081875.405625 0 .001875-.00125.003125-.00125.005625v.00125 5.380625c0 .595.48125 1.07625 1.07625 1.07625s1.07625-.48125 1.07625-1.07625v-2.785625l3.544375 3.53875c.21.209375.485625.314375.76125.314375s.551875-.105.761875-.315625c.419375-.42125.419375-1.1025-.00125-1.523125zm15.613125-1.495625c-.10875-.26375-.31875-.47375-.5825-.5825-.13125-.054375-.270625-.083125-.410625-.083125h-5.381875c-.595 0-1.07625.48125-1.07625 1.07625s.48125 1.07625 1.07625 1.07625h2.78375l-3.544375 3.544375c-.420625.420625-.420625 1.101875 0 1.521875.21.21.485625.315625.76125.315625s.550625-.105.76125-.315625l3.544375-3.544375v2.78375c0 .595.48125 1.07625 1.07625 1.07625s1.07625-.48125 1.07625-1.07625v-5.381875c-.000625-.14-.029375-.279375-.08375-.410625z"/><mask id="b" fill="#fff"><use fill="#fff" fill-rule="evenodd" xlink:href="#a"/></mask></defs><g fill="none" fill-rule="evenodd"><use fill="#000" fill-rule="nonzero" xlink:href="#a"/><g fill="#003d86" mask="url(#b)"><path d="m0 0h20v20h-20z"/></g></g></svg>