<svg height="86" viewBox="0 0 73 86" width="73" xmlns="http://www.w3.org/2000/svg"><g fill="none" fill-rule="nonzero"><g><path d="m27.9978648 71.302558c2.8504929.7303165 7.3190347 14.6913623 8.9134255 14.697442 1.5943909.0060758 6.1942213-13.9843838 9.1012612-14.7461131 15.4756393-4.0550686 26.8987388-18.2074099 26.8987388-35.0433615 0-19.9985209-16.117749-36.2105254-36-36.2105254s-35.99999998 16.2120045-35.99999998 36.2105254c0 16.9039952 11.51562068 31.1026444 27.08657448 35.0920326z" fill="#063e83"/><path d="m28.9112903 71s4.404561 1.1563889 9 1.1938189c4.5954389.0374299 9-1.1938189 9-1.1938189s-.8136286.6068421-1.533087 1.7054706c-.0111617.0170443-.9154445 1.3038419-1.6955134 2.6684208-.9898275 1.7315111-1.9039641 3.6261086-1.9039641 3.6261086z" fill="#003d59"/><circle cx="36.91129" cy="36" fill="#fff" r="32"/></g><path d="m49.1088722 21.5621979c-.7913165-.487472-1.8191472-.2431062-2.3085306.5454143-.4868672.7885204-.2440626 1.8239259.5409636 2.3151767.0842897.0529039 8.4868378 5.4024988 8.2943554 14.7576768-.069193 3.4160823-1.1045722 5.8773746-2.7714948 6.5815007-.895735.3791448-1.9034369.1927214-2.6280765-.4836931-.9309605-.8666167-1.1548943-2.2723497-.6164468-3.8531695 2.6331087-7.7138966-.2440627-10.1928236-2.1927896-10.9851229-.9334766-.3778852-2.5777543-.5214815-3.8899054-.5756451v-10.1840063c0-.9283379-.7498007-1.6803295-1.6782452-1.6803295h-16.6604198c-.9271864 0-1.6795032.7507319-1.6795032 1.6803295v31.9577518h-1.8392761c-.9271864 0-1.6795032.7507319-1.6795032 1.6803295 0 .9308573.7523168 1.6815892 1.6795032 1.6815892h23.7319459c.9271864 0 1.6795032-.7507319 1.6795032-1.6815892 0-.9283379-.7523168-1.6803295-1.6795032-1.6803295h-1.8745016v-18.3941921c1.1586684.0541635 2.249402.161231 2.6280765.3161639 2.0531454.8338667.8768642 5.0170559.276772 6.778001-.9724764 2.8492544-.4101259 5.6178933 1.5046336 7.4027711 1.1045721 1.0316266 2.5387546 1.5757813 3.9867757 1.5757813.757349 0 1.5197302-.1498944 2.2393375-.4547218 1.4039892-.5945394 4.68248-2.7207735 4.8233822-9.6108804.2314821-11.3088446-9.4744108-17.4331041-9.8870528-17.6888064zm-10.1088722 9.797753c0 .9054054-.7818852 1.6400491-1.7455129 1.6400491h-7.5089742c-.9636277 0-1.7455129-.7346437-1.7455129-1.6400491v-4.7199018c0-.9054054.7818852-1.6400491 1.7455129-1.6400491h7.5089742c.9636277 0 1.7455129.7346437 1.7455129 1.6400491z" fill="#063e83"/></g></svg>