<svg height="20" viewBox="0 0 20 20" width="20" xmlns="http://www.w3.org/2000/svg" xmlns:xlink="http://www.w3.org/1999/xlink"><defs><path id="a" d="m14.46125 2.7675c-.393125-.241875-.90375-.120625-1.146875.270625-.241875.39125-.12125.905.26875 1.14875.041875.02625 4.21625 2.680625 4.120625 7.3225-.034375 1.695-.54875 2.91625-1.376875 3.265625-.445.188125-.945625.095625-1.305625-.24-.4625-.43-.57375-1.1275-.30625-1.911875 1.308125-3.8275-.12125-5.0575-1.089375-5.450625-.46375-.1875-1.280625-.25875-1.9325-.285625v-5.053125c0-.460625-.3725-.83375-.83375-.83375h-8.276875c-.460625 0-.834375.3725-.834375.83375v15.856875h-.91375c-.460625 0-.834375.3725-.834375.83375 0 .461875.37375.834375.834375.834375h11.79c.460625 0 .834375-.3725.834375-.834375 0-.460625-.37375-.83375-.834375-.83375h-.93125v-9.126875c.575625.026875 1.1175.08 1.305625.156875 1.02.41375.435625 2.489375.1375 3.363125-.483125 1.41375-.20375 2.7875.7475 3.673125.54875.511875 1.26125.781875 1.980625.781875.37625 0 .755-.074375 1.1125-.225625.6975-.295 2.32625-1.35 2.39625-4.76875.115-5.61125-4.706875-8.65-4.911875-8.776875zm-5.068125 4.744375c0 .460625-.37375.834375-.834375.834375h-3.589375c-.460625 0-.834375-.37375-.834375-.834375v-2.40125c0-.460625.37375-.834375.834375-.834375h3.589375c.460625 0 .834375.37375.834375.834375z"/><mask id="b" fill="#fff"><use fill="#fff" fill-rule="evenodd" xlink:href="#a"/></mask></defs><g fill="none" fill-rule="evenodd"><use fill="#000" fill-rule="nonzero" xlink:href="#a"/><g fill="#003d86" mask="url(#b)"><path d="m0 0h20v20h-20z"/></g></g></svg>