<svg height="20" viewBox="0 0 20 20" width="20" xmlns="http://www.w3.org/2000/svg" xmlns:xlink="http://www.w3.org/1999/xlink"><defs><path id="a" d="m3.04125 14.108125h13.744375c.69 0 1.25-.56 1.25-1.25s-.56-1.25-1.25-1.25h-10.549375c-.255-.616875-.861875-1.05125-1.570625-1.05125s-1.315625.434375-1.570625 1.05125h-.05375c-.69 0-1.25.56-1.25 1.25s.56 1.25 1.25 1.25zm16.125625-2.999375c-.460625 0-.833125.3725-.833125.833125v2.47625h-16.666875v-4.824375c0-.460625-.3725-.833125-.833125-.833125s-.83375.3725-.83375.833125v8.05125c0 .460625.3725.833125.833125.833125s.833125-.3725.833125-.833125v-1.56h16.666875v1.56c0 .460625.3725.833125.833125.833125s.8331258-.3725.8331258-.833125v-5.703125c.0006242-.460625-.3718758-.833125-.8325008-.833125zm-13.474375-5.56h1.0375l-1.38125 2.25c-.118125.193125-.123125.434375-.0125.6325s.31875.32.545.32h2.464375c.345 0 .625-.28.625-.625s-.28-.625-.625-.625h-1.3475l1.38125-2.25c.118125-.193125.123125-.434375.0125-.6325-.110625-.1975-.31875-.32-.545-.32h-2.154375c-.345 0-.625.28-.625.625s.28.625.625.625zm4.20875-1.29875h.630625l-1.010625 1.64625c-.118125.193125-.123125.434375-.0125.6325s.31875.32.545.32h2.000625c.345 0 .625-.28.625-.625s-.28-.625-.625-.625h-.88375l1.010625-1.64625c.118125-.193125.123125-.434375.0125-.6325-.110625-.1975-.31875-.32-.545-.32h-1.7475c-.345 0-.625.28-.625.625s.28.625.625.625z"/><mask id="b" fill="#fff"><use fill="#fff" fill-rule="evenodd" xlink:href="#a"/></mask></defs><g fill="none" fill-rule="evenodd"><use fill="#000" fill-rule="nonzero" xlink:href="#a"/><g fill="#003d86" mask="url(#b)"><path d="m0 0h20v20h-20z"/></g></g></svg>