<?xml version="1.0" encoding="UTF-8" standalone="no"?>
<svg width="30px" height="30px" viewBox="0 0 30 30" version="1.1" xmlns="http://www.w3.org/2000/svg" xmlns:xlink="http://www.w3.org/1999/xlink">
    <!-- Generator: sketchtool 39.1 (31720) - http://www.bohemiancoding.com/sketch -->
    <title>BD3F2BE1-8761-4B45-9135-998440B4190A</title>
    <desc>Created with sketchtool.</desc>
    <defs>
        <path d="M15,30 C23.2842712,30 30,23.2842712 30,15 C30,6.71572875 23.2842712,0 15,0 C6.71572875,0 0,6.71572875 0,15 C0,23.2842712 6.71572875,30 15,30 Z" id="path-1"></path>
        <mask id="mask-2" maskContentUnits="userSpaceOnUse" maskUnits="objectBoundingBox" x="0" y="0" width="30" height="30" fill="white">
            <use xlink:href="#path-1"></use>
        </mask>
    </defs>
    <g id="ICONS" stroke="none" stroke-width="1" fill="none" fill-rule="evenodd">
        <g id="ICONEN" transform="translate(-177.000000, -204.000000)">
            <g id="ic_file_stilstaand_normal" transform="translate(177.000000, 204.000000)">
                <g>
                    <use id="ic_background_file_stilstaand_normal" stroke="#6E1F07" mask="url(#mask-2)" stroke-width="3" fill="#AD320C" xlink:href="#path-1"></use>
                    <path d="M10.2715792,15.775 L8.8549125,15.775 C8.57157917,15.775 8.28824583,15.56875 8.28824583,15.225 C8.28824583,14.88125 8.57157917,14.74375 8.8549125,14.74375 L10.2715792,14.74375 C10.5549125,14.74375 10.8382458,14.95 10.8382458,15.29375 C10.8382458,15.6375 10.5549125,15.775 10.2715792,15.775 M12.1132458,14.5375 L12.5382458,14.33125 L12.8215792,13.4375 C13.1757458,12.3375 14.6632458,11.7875 16.0090792,11.7875 L17.0715792,11.7875 C17.0007458,11.58125 16.9299125,11.375 16.8590792,11.16875 C16.6465792,10.55 15.5840792,10 14.3799125,10 L11.6882458,10 C10.4840792,10 9.42157917,10.55 9.20907917,11.16875 C8.99657917,11.7875 8.8549125,12.3375 8.8549125,12.3375 C8.8549125,12.3375 8.50074583,12.475 8.14657917,12.68125 C7.72157917,12.8875 7.3674125,13.64375 7.22574583,14.4 L7.01324583,15.84375 C6.9424125,16.39375 7.1549125,16.875 7.65074583,17.08125 L7.65074583,17.76875 C7.65074583,18.1125 8.0049125,18.45625 8.35907917,18.45625 L9.13824583,18.45625 C9.4924125,18.45625 9.84657917,18.1125 9.84657917,17.76875 L9.84657917,17.21875 L10.7674125,17.21875 L10.8382458,16.80625 C10.9799125,15.9125 11.4757458,14.88125 12.1132458,14.5375" id="Fill-1" fill="#FFFFFF"></path>
                    <path d="M21.6758167,18.25 L20.25915,18.25 C19.9758167,18.25 19.6924833,18.04375 19.6924833,17.7 C19.6924833,17.35625 19.9049833,17.15 20.25915,17.15 L21.6758167,17.15 C21.95915,17.15 22.2424833,17.35625 22.2424833,17.7 C22.2424833,18.04375 21.95915,18.25 21.6758167,18.25 M14.5924833,18.25 L13.1758167,18.25 C12.8924833,18.25 12.60915,18.04375 12.60915,17.7 C12.60915,17.35625 12.82165,17.15 13.1758167,17.15 L14.5924833,17.15 C14.8758167,17.15 15.15915,17.35625 15.15915,17.7 C15.15915,18.04375 14.8758167,18.25 14.5924833,18.25 M23.5174833,18.31875 L23.3049833,16.875 C23.1633167,16.11875 22.7383167,15.3625 22.2424833,15.15625 C21.8174833,14.95 21.4633167,14.8125 21.4633167,14.8125 C21.4633167,14.8125 21.32165,14.2625 21.10915,13.64375 C20.89665,13.025 19.83415,12.475 18.6299833,12.475 L16.00915,12.475 C14.8049833,12.475 13.7424833,13.025 13.5299833,13.64375 C13.3174833,14.2625 13.1758167,14.8125 13.1758167,14.8125 C13.1758167,14.8125 12.82165,14.95 12.4674833,15.15625 C12.0424833,15.3625 11.6883167,16.11875 11.54665,16.875 L11.33415,18.31875 C11.2633167,18.86875 11.4758167,19.35 11.97165,19.55625 L11.97165,20.24375 C11.97165,20.5875 12.3258167,20.93125 12.6799833,20.93125 L13.45915,20.93125 C13.8133167,20.93125 14.1674833,20.5875 14.1674833,20.24375 L14.1674833,19.69375 L20.9674833,19.69375 L20.9674833,20.24375 C20.9674833,20.5875 21.32165,20.93125 21.6758167,20.93125 L22.3133167,20.93125 C22.6674833,20.93125 23.02165,20.5875 23.02165,20.24375 L23.02165,19.4875 C23.44665,19.28125 23.65915,18.86875 23.5174833,18.31875" id="Fill-4" fill="#FFFFFF"></path>
                </g>
            </g>
        </g>
    </g>
</svg>