<svg height="20" viewBox="0 0 20 20" width="20" xmlns="http://www.w3.org/2000/svg" xmlns:xlink="http://www.w3.org/1999/xlink"><defs><path id="a" d="m16.97375 9.1475c-.04-.058125-.08125-.115625-.124375-.17375h-4.83875s-1.52875.0475-1.52875-1.194375c0-1.14625 1.52875-1.194375 1.52875-1.194375h2.726875l-.0325-.035625c-1.333125-1.450625-3.416875-1.545625-3.521875-1.549375h-11.183125v6.3375.9175h.751875 3.295 8.225 2.880625.049375c.308125 0 1.633125-.055625 2.066875-1 .340625-.743125.07125-1.575625-.295-2.1075zm-11.199375-1.781875h2.801875c.25375 0 .45875.205.45875.45875s-.205.45875-.45875.45875h-2.801875c-.25375 0-.45875-.205-.45875-.45875s.205-.45875.45875-.45875zm-4.573125 3.971875v-4.345c0-.25375.205-.45875.45875-.45875h1.8275c.25375 0 .45875.205.45875.45875v4.345zm-1.2 2.013125h19.37375v.9175h-19.37375z"/><mask id="b" fill="#fff"><use fill="#fff" fill-rule="evenodd" xlink:href="#a"/></mask></defs><g fill="none" fill-rule="evenodd"><use fill="#000" fill-rule="nonzero" xlink:href="#a"/><g fill="#003d86" mask="url(#b)"><path d="m0 0h20v20h-20z"/></g></g></svg>