<svg height="19" viewBox="0 0 17 19" width="17" xmlns="http://www.w3.org/2000/svg"><path d="m17.8814943 18.38125-1.910625-1.501875c.933125-.66 1.548125-1.7425 1.548125-2.969375v-7.829375c0-1.965-1.565-3.57125-3.513125-3.638125-.218125-.829375-.97375-1.4425-1.869375-1.4425h-4.07062504c-.89625 0-1.651875.61375-1.869375 1.4425-1.94875.066875-3.513125 1.673125-3.513125 3.638125v7.829375c0 1.2275.614375 2.31 1.548125 2.97l-1.910625 1.50125c-.364375.286875-.428125.815-.14125 1.179375.165625.21125.411875.321875.660625.321875.181875 0 .364375-.059375.51875-.179375l2.735-2.149375c.00875-.006875.011875-.016875.020625-.02375.070625.004375.1375.02125.209375.02125h7.55437504c.071875 0 .13875-.016875.209375-.02125.008125.006875.011875.016875.020625.02375l2.735 2.149375c.15375.120625.3375.179375.51875.179375.24875 0 .495625-.11.661875-.320625.285-.365625.221875-.893125-.1425-1.180625zm-13.51812504-4.47125v-2.383125h11.47437504v2.383125c0 1.08125-.87875 1.96-1.96 1.96h-7.55437504c-1.080625 0-1.96-.87875-1.96-1.96zm11.47437504-6.974375v2.910625h-11.47437504v-2.910625zm-9.51437504-2.815625h.65c.46375 0 .84-.37625.84-.84v-.348125c0-.13875.113125-.251875.251875-.251875h4.07062504c.13875 0 .25125.113125.25125.251875v.348125c0 .46375.37625.84.840625.84h.65c.785625 0 1.459375.4675 1.771875 1.135625h-11.09812504c.3125-.668125.986875-1.135625 1.771875-1.135625zm.1975 8.301875c-.61375 0-1.110625.4975-1.110625 1.11125s.4975 1.110625 1.110625 1.110625 1.11062559-.4975 1.11062559-1.110625c.00062441-.61375-.49687559-1.11125-1.11062559-1.11125zm8.27062504 1.11125c0-.61375-.4975-1.11125-1.11125-1.11125s-1.110625.4975-1.110625 1.11125.4975 1.110625 1.110625 1.110625c.614375 0 1.11125-.496875 1.11125-1.110625z" transform="translate(-2 -1)"/></svg>