<svg width="160" height="160" viewBox="0 0 160 160" fill="none" xmlns="http://www.w3.org/2000/svg">
<circle cx="80" cy="80" r="80" fill="#8641F2"/>
<path d="M51.3346 67.9546C55.3578 53.7121 66.2669 46.5909 84.0619 46.5909C95.5126 46.5909 104.178 50.3788 110.058 57.9546L134.197 44.3182C122.747 28.1061 105.88 20 83.5977 20C64.4101 20 49.0135 25.6818 37.4081 37.0455C25.8027 48.4091 20 62.7273 20 80C20 97.1212 25.7253 111.364 37.176 122.727C48.6267 134.242 63.3269 140 81.2766 140C98.2978 140 112.302 134.242 123.288 122.727C134.429 111.212 140 96.9697 140 80C140 76.2121 139.613 72.197 138.84 67.9546L51.3346 67.9546ZM50.8704 90.6818H110.058C108.356 98.4091 104.797 104.167 99.3811 107.955C94.12 111.742 88.0851 113.636 81.2766 113.636C73.2302 113.636 66.5764 111.591 61.3153 107.5C56.0541 103.561 52.5725 97.9546 50.8704 90.6818Z" fill="white"/>
</svg>
