<svg height="16" viewBox="0 0 16 16" width="16" xmlns="http://www.w3.org/2000/svg" xmlns:xlink="http://www.w3.org/1999/xlink"><defs><path id="a" d="m3.61797753 10c0 3.525043 2.85697942 6.3820225 6.38202247 6.3820225 3.525043 0 6.3820225-2.8569795 6.3820225-6.3820225 0-3.52504305-2.8569795-6.38202247-6.3820225-6.38202247-3.52504305 0-6.38202247 2.85697942-6.38202247 6.38202247zm6.38202247-8c4.4186274 0 8 3.58137264 8 8 0 4.4186274-3.5813726 8-8 8-4.41862736 0-8-3.5813726-8-8 0-4.41862736 3.58137264-8 8-8zm3.4778947 7.5h-6.66890594c-.44679215 0-.80898876.36219661-.80898876.8089888 0 .4467921.36219661.8089887.80898876.8089887h6.66890594c.4467922 0 .8089888-.3621966.8089888-.8089887 0-.44679219-.3621966-.8089888-.8089888-.8089888z"/><mask id="b" fill="#fff"><use fill="#fff" fill-rule="evenodd" xlink:href="#a"/></mask></defs><g fill="#e41" fill-rule="evenodd" transform="translate(-2 -2)"><use fill-rule="nonzero" xlink:href="#a"/><g fill-rule="evenodd" mask="url(#b)"><path d="m0 0h30v30h-30z" transform="translate(-5 -5)"/></g></g></svg>