<?xml version="1.0" encoding="utf-8"?>
<!-- Generator: Adobe Illustrator 21.1.0, SVG Export Plug-In . SVG Version: 6.00 Build 0)  -->
<svg version="1.1" id="Layer_1" pointer-events="none"
	 xmlns="http://www.w3.org/2000/svg" xmlns:xlink="http://www.w3.org/1999/xlink" x="0px" y="0px" viewBox="0 0 650 360"
	 style="enable-background:new 0 0 650 360;" xml:space="preserve">
<style type="text/css">
	.st0{fill:none;stroke:#003C85;stroke-width:6;stroke-linecap:round;stroke-linejoin:round;stroke-opacity:0.3;}
</style>
<g>
	<path class="st0" d="M446,112h-6l-3,5l3,2h4l2,2l-3,12l-6,10l-3,15l-3,7l-7,9l-5,3h-15l-6,4l-7,12l-14,45l-5,6l-4,2l-10,1l-14,7
		l-17,3l-34-9l-13-6l-9-7l-22,1l-10-9v-3l-11,7l-10-1l-3-7l-6,3h-4"/>
	<path class="st0" d="M446,112h-6l-3,5l3,2h4l2,2l-3,12l-6,10l-3,15l-3,7l-7,9l-5,3l-18,1l-9,13l-6,19l-2,2l-8-2h-9l-10,11l-9,2
		l-20,15l-15-3l-11,1l-5,2l-2,4l-6,3h-4l-14-10l-22,1l-10-9v-3l-11,7l-10-1l-3-7l-6,3h-4"/>
</g>
</svg>
