<?xml version="1.0" encoding="utf-8"?>
<!-- Generator: Adobe Illustrator 21.1.0, SVG Export Plug-In . SVG Version: 6.00 Build 0)  -->
<svg version="1.1" id="Layer_1" pointer-events="none"
	 xmlns="http://www.w3.org/2000/svg" xmlns:xlink="http://www.w3.org/1999/xlink" x="0px" y="0px" viewBox="0 0 912 926"
	 style="enable-background:new 0 0 912 926;" xml:space="preserve">
<style type="text/css">
	.st0{fill:none;stroke:#003C85;stroke-width:6;stroke-linecap:round;stroke-linejoin:round;stroke-opacity:0.7;}
</style>
<g>
	<path class="st0" d="M183,554l13-2l6-5l3,3l-1,1l3,6v9v-3l8,2h11l21-11v-4l-5-10l-1-7l-12-11l-8-18l3-17l-5-23l8-4l14-3l26-17
		l15-12l24-24l4-13l-3-7l1-4l3-3l20-9l15-11l18-24l7-6l5-2h10l41,3l16-6h37l12-3l14-8l7-2h39l20,7l27,6l16,6l4,3l21,3l9,5l4-11h2
		l3-3l6,1"/>
</g>
</svg>
