<svg pointer-events="none" class="leaflet-zoom-animated" width="912" height="926" viewBox="-105 -90 912 926" style="transform: translate3d(-105px, -90px, 0px);"><g><path class="leaflet-interactive" stroke="#003c85" stroke-opacity="0.7" stroke-width="6" stroke-linecap="round" stroke-linejoin="round" stroke-dasharray="none" fill="none" d="M78 464L91 462L97 457L100 460L99 461L102 467L102 476L102 473L110 475L121 475L142 464L142 460L137 450L136 443L124 432L116 414L119 397L114 374L122 370L136 367L162 350L177 338L201 314L205 301L202 294L203 290L206 287L226 278L241 267L259 243L266 237L271 235L281 235L322 238L338 232L375 232L387 229L401 221L408 219L447 219L467 226L494 232L510 238L514 241L535 244L544 249L548 238L550 238L553 235L559 236"></path><path class="leaflet-interactive" stroke="#003c85" stroke-opacity="0.3" stroke-width="6" stroke-linecap="round" stroke-linejoin="round" stroke-dasharray="none" fill="none" d="M78 464L91 462L97 457L100 460L99 461L102 467L102 476L102 473L110 475L121 475L138 465L142 465L152 472L157 477L158 482L161 484L188 484L199 482L212 483L219 490L239 502L274 515L302 519L317 525L331 525L338 522L359 519L371 511L393 504L404 504L417 496L445 495L463 501L490 504L513 504L538 494L592 494L610 489L620 483L624 483L623 484L609 462L576 399L570 391L544 365L532 344L541 301L554 277L557 268L560 247L562 247L558 249L551 249L547 248L545 244L547 239L553 235L559 236"></path><path class="leaflet-interactive" stroke="#003c85" stroke-opacity="0.3" stroke-width="6" stroke-linecap="round" stroke-linejoin="round" stroke-dasharray="none" fill="none" d="M78 464L91 462L97 457L100 460L99 461L102 467L102 476L102 473L110 475L121 475L138 465L142 465L152 472L157 477L158 482L161 484L188 484L199 482L212 483L219 490L231 498L245 505L247 501L258 497L260 495L259 491L262 488L274 484L285 485L291 483L302 483L322 488L367 457L379 455L382 453L391 446L402 432L414 432L437 436L440 434L443 419L452 395L465 374L470 369L475 367L507 366L514 362L526 349L535 331L541 301L554 277L557 268L560 247L562 247L558 249L551 249L547 248L545 244L547 239L553 235L559 236"></path></g></svg>