<?xml version="1.0" encoding="UTF-8" standalone="no"?>
<svg width="35px" height="42px" viewBox="0 0 35 42" version="1.1" xmlns="http://www.w3.org/2000/svg" xmlns:xlink="http://www.w3.org/1999/xlink">
    <!-- Generator: Sketch 3.7.2 (28276) - http://www.bohemiancoding.com/sketch -->
    <title>ic_background_flitsers_only_big_w=35 copy 4</title>
    <desc>Created with Sketch.</desc>
    <defs></defs>
    <g id="-OV-Aanwijzingen" stroke="none" stroke-width="1" fill="none" fill-rule="evenodd">
        <g id="768---OV-aanwijzingen" transform="translate(-660.000000, -341.000000)">
            <g id="ic_background_flitsers_only_big_w=35-copy-4" transform="translate(660.000000, 341.000000)">
                <g id="ic_background_flitsers_only_big_w=35">
                    <path d="M13.1670848,34.8221803 C14.5527411,35.1788465 16.7249489,41.9970318 17.5,42 C18.2750511,42.0029682 20.5110798,35.170418 21.9242242,34.7984107 C29.4471044,32.8180283 35,25.9064196 35,17.6842105 C35,7.91749074 27.1649831,0 17.5,0 C7.83501688,0 -1.24344979e-13,7.91749074 -1.24344979e-13,17.6842105 C-1.24344979e-13,25.9396502 5.59787117,32.8738744 13.1670848,34.8221803 Z" fill="#299100"></path>
                    <path d="M13.2283936,34.8265316 C13.2283936,34.8265316 15.3291149,35.3855909 17.520874,35.4036865 C19.7126331,35.4217821 21.8133545,34.8265316 21.8133545,34.8265316 C21.8133545,34.8265316 21.4253006,35.119911 21.0821605,35.6510459 C21.076837,35.659286 20.6455463,36.2813917 20.2734985,36.941101 C19.8014079,37.7782046 19.3654175,38.6941528 19.3654175,38.6941528 L13.2283936,34.8265316 Z" id="Path-2137" fill="#003D59"></path>
                    <ellipse id="Oval-269" fill="#60B23F" cx="17.453125" cy="17.6157895" rx="15.453125" ry="15.6157895"></ellipse>
                </g>
            </g>
        </g>
    </g>
</svg>